<svg width="24" height="24" viewBox="0 0 24 24" fill="none" xmlns="http://www.w3.org/2000/svg">
<circle cx="12" cy="12" r="12" fill="#4B5467"/>
<path d="M14 11C14 11.5304 13.7893 12.0391 13.4142 12.4142C13.0391 12.7893 12.5304 13 12 13C11.4696 13 10.9609 12.7893 10.5858 12.4142C10.2107 12.0391 10 11.5304 10 11C10 10.4696 10.2107 9.96086 10.5858 9.58579C10.9609 9.21071 11.4696 9 12 9C12.5304 9 13.0391 9.21071 13.4142 9.58579C13.7893 9.96086 14 10.4696 14 11Z" stroke="#E3E9F2" stroke-linecap="round" stroke-linejoin="round"/>
<path d="M17 11C17 15.7613 12 18.5 12 18.5C12 18.5 7 15.7613 7 11C7 9.67392 7.52678 8.40215 8.46447 7.46447C9.40215 6.52678 10.6739 6 12 6C13.3261 6 14.5979 6.52678 15.5355 7.46447C16.4732 8.40215 17 9.67392 17 11Z" stroke="#E3E9F2" stroke-linecap="round" stroke-linejoin="round"/>
</svg>
